<svg xmlns="http://www.w3.org/2000/svg" baseProfile="full" version="1.1" width="675px" height="360px" style="fill: none; width: 675px; height: 360px;"><path d="" style="stroke-width: 10; stroke-linecap: round; stroke-linejoin: round; stroke: rgb(204, 204, 204); fill: none;"/><path d="" style="stroke-width: 10; stroke-linecap: round; stroke-linejoin: round; stroke: rgb(153, 153, 153); fill: none;"/><path d="M60,60 L60,60 L60,300 L300,300 L300,60 L60,60 L60,60 M225,255 L225,255 L450,255 L450,15 L225,15 L225,255 M60,300 L60,300 L225,255 L225,15 L60,60 M300,300 L300,300 L225,255 L225,15 L300,60 M300,300 L300,300 L375,300 L375,60 L300,60 M615,60 L615,60 L615,300 L375,300 L375,60 L615,60 L615,60 M450,255 L450,255 L225,255 L225,15 L450,15 L450,255 M615,300 L615,300 L450,255 L450,15 L615,60 M375,300 L375,300 L450,255 L450,15 L375,60 M375,300 L375,300 L300,300 L300,60 L375,60 " style="stroke-width: 17; stroke-linecap: butt; stroke-linejoin: bevel; stroke: rgb(255, 255, 255); fill: none;"/></svg>