<svg xmlns="http://www.w3.org/2000/svg" baseProfile="full" version="1.1" width="360px" height="360px" style="fill: none; width: 360px; height: 360px;"><path d="" style="stroke-width: 10; stroke-linecap: round; stroke-linejoin: round; stroke: rgb(204, 204, 204); fill: none;"/><path d="" style="stroke-width: 10; stroke-linecap: round; stroke-linejoin: round; stroke: rgb(153, 153, 153); fill: none;"/><path d="M60,255 L255,255 L255,255 M60,255 L60,255 L60,255 L60,60 L255,60 L255,255 L60,255 M120,60 L120,60 L120,255 M195,255 L195,255 L195,60 M255,135 L60,135 M120,135 L120,135 L195,135 L165,255 L150,255 L120,135 M150,255 L150,255 L120,60 L195,60 L165,255 L150,255 " style="stroke-width: 18; stroke-linecap: butt; stroke-linejoin: round; stroke: rgb(0, 0, 0); fill: none;"/></svg>